<?xml version="1.0" encoding="utf-8"?>
<!-- Generator: Adobe Illustrator 27.8.1, SVG Export Plug-In . SVG Version: 6.00 Build 0)  -->
<svg version="1.1" id="Layer_1" xmlns="http://www.w3.org/2000/svg" xmlns:xlink="http://www.w3.org/1999/xlink" x="0px" y="0px"
	 viewBox="0 0 50 50" style="enable-background:new 0 0 50 50;" xml:space="preserve">
<style type="text/css">
	.st0{fill-rule:evenodd;clip-rule:evenodd;fill:#FFFFFF;}
</style>
<path class="st0" d="M30,5l-7,4l0,32.8V46l7-3V5z M21,16l-0.2,0l-0.5,0.1l-0.2,0l-0.2,0l-0.5,0.1l-0.2,0l-0.2,0l-0.2,0.1l-0.2,0.1
	l-0.2,0.1l-0.7,0.2l-0.2,0.1l-0.2,0.1l-0.2,0.1L16.5,17L16.2,17L16,17.1l-0.2,0.1l-0.2,0.1l-0.2,0.1l-0.2,0.1l-0.2,0.1l-0.2,0.1
	l-0.2,0.1l-0.2,0.1l-0.2,0.1l-0.2,0.1L13.7,18c0,0,0,0,0,0v0c0,0,0,0,0,0l-0.2,0.1l-0.2,0.1l-0.2,0.1l-0.2,0.1l-0.4,0.2l-0.2,0.1
	l-0.2,0.1L11.7,19l-0.2,0.1l-0.4,0.2l-0.2,0.1l-0.2,0.1l-0.2,0.1l-0.2,0.1l-0.2,0.1l-0.3,0.2l-0.2,0.1l-0.2,0.1l-0.2,0.1l-0.2,0.1
	l-0.2,0.1l-0.2,0.1l-0.5,0.4l-0.3,0.3L8,21.7l-0.1,0.1l-0.3,0.3l-0.1,0.1l-0.1,0.1L7,22.6l-0.1,0.1l-0.1,0.1l-0.1,0.1l-0.2,0.3
	l-0.1,0.1l-0.1,0.1l-0.2,0.3l-0.1,0.2l-0.1,0.1l-0.2,0.3l-0.1,0.2l-0.1,0.2L5.1,25L5,25.2l-0.2,0.3l-0.1,0.2l-0.1,0.2l-0.1,0.2
	l-0.2,0.3l-0.1,0.2l-0.1,0.2l-0.1,0.2l-0.1,0.2L4,27l-0.1,0.2l-0.1,0.2l-0.1,0.2l-0.1,0.2l-0.1,0.2L3.6,28l-0.1,0.3l0,0.2l0,0.2
	l0,0.2l0,0.2l0,0.2l0,0.2l0,0.2l0,0.2l0,0.2l-0.1,0.5l0,0.2l0,0.2l0,0.2L3,31l0,0.2l0,0.2l0,0.2v0.3L3,32l0,0.2l0,0.2l0,0.2l0,0.5
	l0,0.2l0,0.2l0,0.2l0,0.2l0,0.2l0,0.2l0,0.2l0.1,0.3l0,0.2l0.1,0.5l0.1,0.2l0.1,0.3l0.1,0.2l0.2,0.5l0.2,0.5L4.3,37l0.1,0.1l0.1,0.2
	l0.1,0.1l0.1,0.2l0.1,0.1l0.1,0.1L5,38.2l0.1,0.1l0.1,0.1l0.2,0.3l0.1,0.1L5.6,39l0.1,0.1l0.1,0.1l0.1,0.1l0.1,0.1l0.1,0.1l0.1,0.1
	l0.1,0.1l0.1,0.1l0.1,0.1l0.1,0.1l0.1,0.1l0.3,0.2l0.4,0.4l0.1,0.1c0,0,0,0,0,0h0l0,0l0.1,0.1l0.1,0.1l0.1,0.1l0.2,0.1l0.2,0.1
	l0.2,0.1L9,42.1l0.2,0.1l0.3,0.2l0.3,0.2l0.2,0.1l0.2,0.1l0.2,0.1c0,0,0,0,0,0h0c0,0,0,0,0,0l0.2,0.1l0.2,0.1l0.2,0.1l0.2,0.1
	l0.2,0.1l0.2,0.1l0.2,0.1l0.2,0.1l0.2,0.1l0.2,0.1l0.2,0.1l0.2,0.1l0.2,0.1l0.2,0.1l0.6,0.2l0.2,0.1l0.2,0.1l0.2,0.1l0.2,0.1
	l0.2,0.1l0.2,0.1l0.2,0.1l0.2,0.1l0.2,0.1l0.2,0.1l0.5,0.1l0.2,0.1l0.2,0.1l0.2,0.1l0.5,0.1l0.5,0.1l0.2,0l0.2,0l0.2,0l0.3,0l0.2,0
	l0.3,0l0.3,0l0.3,0l0.3,0l0.3,0l0.3,0l0.3,0v-6c-0.5-0.1-0.9-0.1-1.4-0.2c-0.4-0.1-0.9-0.2-1.3-0.3s-0.8-0.2-1.2-0.3
	s-0.8-0.2-1.2-0.4c-0.4-0.1-0.7-0.3-1.1-0.4s-0.7-0.3-1-0.5c-0.3-0.2-0.6-0.3-0.9-0.5c-0.3-0.2-0.6-0.4-0.8-0.6
	c-0.2-0.2-0.5-0.4-0.7-0.6l0,0l0,0c-0.2-0.2-0.4-0.4-0.6-0.6c-0.2-0.2-0.4-0.4-0.5-0.6c-0.2-0.2-0.3-0.4-0.4-0.7
	c-0.3-0.4-0.5-0.9-0.6-1.4c-0.1-0.2-0.1-0.5-0.1-0.7c0,0,0,0,0,0c0-0.2,0-0.5,0-0.7c0-0.2,0-0.5,0.1-0.7c0-0.2,0.1-0.5,0.2-0.7
	c0.1-0.2,0.2-0.5,0.3-0.7s0.2-0.5,0.4-0.7c0.1-0.2,0.3-0.5,0.5-0.7c0.2-0.2,0.4-0.5,0.6-0.7c0.2-0.2,0.4-0.5,0.7-0.7
	c0.2-0.2,0.5-0.4,0.8-0.7c0.3-0.2,0.5-0.4,0.8-0.6c0.3-0.2,0.6-0.4,0.9-0.6c0.3-0.2,0.6-0.4,1-0.6c0.3-0.2,0.7-0.4,1.1-0.5
	c0.4-0.2,0.7-0.3,1.1-0.5s0.8-0.3,1.2-0.4c0.4-0.1,0.8-0.2,1.2-0.3c0.4-0.1,0.9-0.2,1.3-0.3V16z M32,16v6c0.4,0.1,0.9,0.2,1.4,0.3
	c0.5,0.1,0.9,0.3,1.4,0.5c0.4,0.2,0.9,0.4,1.3,0.6c0.4,0.2,0.7,0.4,1,0.6l-4,3l14,2V17l-4.5,3l-0.1-0.1l-0.1-0.1l-0.1-0.1L42,19.6
	l-0.1-0.1l-0.1-0.1l-0.1-0.1l-0.1-0.1l-0.1-0.1l-0.1-0.1l-0.1-0.1L41,19l-0.1-0.1l-0.1-0.1l-0.1-0.1l-0.1-0.1l-0.3-0.2L40,18.4
	l-0.3-0.2l-0.1-0.1l-0.1-0.1L39.2,18L39.1,18l-0.2-0.1l-0.2-0.1l-0.2-0.1l-0.2-0.1L38,17.5l-0.2-0.1l-0.2-0.1l-0.2-0.1l-0.2-0.1
	l-0.2-0.1l-0.3-0.1L36.6,17L36.5,17l-0.2-0.1l-0.2-0.1l-0.2-0.1l-0.2-0.1l-0.2-0.1l-0.4-0.1l-0.2,0l-0.4-0.1l-0.2,0l-0.2,0l-0.2,0
	l-0.2,0l-0.2,0l-0.2,0L33,16.1l-0.2,0l-0.2,0l-0.2,0l-0.2,0L32,16z"/>
</svg>
